<svg width="44" height="30" viewBox="0 0 44 30" fill="none" xmlns="http://www.w3.org/2000/svg">
<path fill-rule="evenodd" clip-rule="evenodd" d="M21.9495 0C29.9058 0 36.3627 6.36697 36.5126 14.2832C36.8325 21.5897 43.9191 21.2799 43.9191 21.2799H34.8834L34.8934 21.2599C32.4645 25.9376 27.5869 29.1261 21.9495 29.1261C16.3322 29.1261 11.4545 25.9476 9.0257 21.2799H0C0 21.2799 6.95669 21.5797 7.39648 14.4731C7.43646 6.47691 13.9434 0 21.9495 0V0ZM21.9495 3.48834C28.0766 3.48834 33.0343 8.44598 33.0343 14.5631C33.0343 20.6901 28.0766 25.6478 21.9495 25.6478C15.8325 25.6478 10.8748 20.6901 10.8748 14.5631C10.8748 8.44598 15.8325 3.48834 21.9495 3.48834V3.48834Z" fill="#27916E"/>
</svg>
