<?xml version="1.0" encoding="UTF-8"?>
<!DOCTYPE svg PUBLIC "-//W3C//DTD SVG 1.1//EN" "http://www.w3.org/Graphics/SVG/1.1/DTD/svg11.dtd">
<!-- Creator: CorelDRAW 2018 (64-Bit) -->
<svg xmlns="http://www.w3.org/2000/svg" xml:space="preserve" width="4252px" height="7559px" version="1.1" style="shape-rendering:geometricPrecision; text-rendering:geometricPrecision; image-rendering:optimizeQuality; fill-rule:evenodd; clip-rule:evenodd"
viewBox="0 0 4252 7559.11"
 xmlns:xlink="http://www.w3.org/1999/xlink">
 <defs>
  <style type="text/css">
   <![CDATA[
    .str0 {stroke:#2B2A29;stroke-width:2.36;stroke-miterlimit:22.9256}
    .fil3 {fill:#FEFEFE}
    .fil5 {fill:#F5F6F8}
    .fil1 {fill:#292323}
    .fil12 {fill:#9AB8AE}
    .fil7 {fill:#CAE6DD}
    .fil4 {fill:#CCE8DE}
    .fil8 {fill:#CEEDE3}
    .fil11 {fill:#DAF5EC}
    .fil6 {fill:#DCF7EE}
    .fil0 {fill:#DED8D8}
    .fil10 {fill:#E1E8E6}
    .fil2 {fill:#EFE9E9}
    .fil9 {fill:#F0FAF7}
   ]]>
  </style>
 </defs>
 <g id="Слой_x0020_1">
  <metadata id="CorelCorpID_0Corel-Layer"/>
  <path class="fil0" d="M2267.73 3111.32c35.33,-8.76 202.57,-102.17 223.66,-124.33 -11.36,-33.61 -39.48,-63 -69.07,-76.75 -54.2,-25.18 -97.51,-4.96 -137.03,21.12 -42.55,28.08 -71.04,122.94 -17.56,179.96z"/>
  <path class="fil0" d="M2275.23 3122.33c17.6,14.21 33,33.86 66.09,38.35 66.41,9 125.64,-19.92 146.4,-72.67 12.5,-31.79 16.44,-53.22 8.5,-88.83 -11.72,5.15 -20.74,9.3 -31.42,15.4 -12.32,7.04 -12.64,9.07 -23.62,17.58 -35.46,27.49 -143.97,73.77 -165.95,90.17z"/>
  <path class="fil1" d="M3070.74 2786.24c-7.04,8.98 -11.14,11.35 -29.43,16 -69.44,17.64 -94.83,-23.88 -101.65,-29.03 19.13,3.78 31.94,11.72 56.63,12.73 24.33,1.01 49.76,-0.49 74.45,0.3zm31.16 -88.11c-22.71,9.34 -73.46,9.42 -100.83,7.74 -43.04,-2.64 -15.92,-29.38 -76.42,-29.75l16.83 -28.51c24.13,7.04 27.62,27.07 68.47,29.84 23.89,1.62 66.54,0.66 90.35,-1.8l1.6 22.48zm-9.67 -31.98c-46.46,14.03 -117.54,3.98 -140.52,-27.5 3.02,-17.52 49.5,8.96 64.8,11.64 15.61,2.75 28.71,2.23 44.41,1.88 27.45,-0.62 23.78,-5.81 31.31,13.98zm-117.27 -41.25c25.09,-13 64.3,-9.78 88.85,10.71 5.83,4.87 2.62,2.05 6.94,7.55 -32.53,2.43 -75.65,0.97 -95.79,-18.26zm-42.67 80.9c-17.78,3.31 -7.34,-4.41 -16.22,6.64 26.86,5.6 66.76,63.01 188.03,12.89 -2.38,26.09 -7.72,44.94 -34.79,50.78 -30.76,6.64 -116.75,3.01 -141.94,-22.08 -11.37,-11.33 -19.85,-48.54 -6.11,-62.46 8.22,-13.38 30.37,-4.53 40.61,4.69 42.98,38.74 76.67,5.82 153.15,15.1 -5.87,-69.65 -50.34,-99.66 -117.89,-101.86l-0.35 -424.6 -9.3 0 -0.07 421.67c-29.26,24.76 -45.45,1.26 -75.74,75.86 -52.31,128.85 195.83,205.31 202.22,25.6l-16.01 8.5c-8.06,4.64 0.32,0.28 -9.11,5.64 -10.86,6.17 -7.98,5.18 -19.53,7.88 -55.02,12.87 -100.17,8.49 -136.95,-24.25z"/>
  <path class="fil1" d="M2006.19 2950.32c2.63,67.04 -91.75,-10.29 -71.18,-72.4 17.13,9.69 24.98,5.62 39.09,17.4 -2.4,22.57 -20.27,18.7 -9.68,37.06 8.99,15.57 24.41,7.43 41.77,17.94zm-50.13 -109.4c25.89,8.17 29.41,42.01 59.58,56.82 19.83,-7.67 16.92,-16 37.36,-12.27 7.94,51.6 -1.23,25.29 30.94,46.52 -16.76,36.51 -24.84,46.73 -73.43,45.19 18.88,-48.63 -14.09,-31.82 -38.35,-47.82 -2.36,-21.51 12.86,1.17 11.36,-40 -24.74,-18.23 -69.18,-8.09 -27.46,-48.44zm11.71 -9.66c45.39,-10.65 46.07,-13.04 85,8.84 27.18,15.28 37.98,38.95 35.28,77.29l-21.78 0.03 -3.96 -40.05c-37.2,-6.5 -23.9,4.66 -53.04,10.31 -8.88,-11.78 -10.85,-11.42 -19.15,-26.33 -5.7,-10.23 -12.61,-23.78 -22.35,-30.09zm36.23 -18.44c-129.26,22.77 -91.48,171.39 6.98,173.68 58.19,1.35 87.33,-31.71 86.55,-86.64 -0.87,-60.82 -42.71,-68.53 -84.19,-89l0.37 -622.99c-14.68,9.29 -8.62,138.68 -8.52,152.87l-1.19 472.08z"/>
  <path class="fil2" d="M2083.94 2931.99c-32.17,-21.23 -23,5.08 -30.94,-46.52 -20.44,-3.73 -17.53,4.6 -37.36,12.27 -30.17,-14.81 -33.69,-48.65 -59.58,-56.82 -41.72,40.35 2.72,30.21 27.46,48.44 1.5,41.17 -13.72,18.49 -11.36,40 24.26,16 57.23,-0.81 38.35,47.82 48.59,1.54 56.67,-8.68 73.43,-45.19z"/>
  <path class="fil2" d="M2100.82 3152.01c34.13,0.04 57.68,2.03 87.63,-10.9 24.6,-10.61 41.86,-11.94 69.74,-22.31 -2.31,-7.45 -26.78,-56.82 -31.71,-65.97 -11.97,7.05 -20.38,14.52 -34.6,23.35 -24,14.9 -82.69,50.06 -91.06,75.83z"/>
  <path class="fil1" d="M2602.69 2653.92c14.13,-3.17 11.34,0.96 21.58,-17.94 0.41,-0.77 1.07,-2.31 1.74,-3.38l7.53 20.43 25.43 2.23c-19.15,6.18 -25.36,14.21 -22.04,37.98 -8.89,-6.03 -9.65,-8.77 -16.72,-16.42l-21.51 8.18c1.85,-2.93 8.14,-12.62 8.73,-15.56 4.52,-22.66 1.38,-8.93 -4.74,-15.52zm-5.32 9.47c0.42,-0.83 1.65,1.79 2.38,2.76 -9.25,15.21 -19.48,21 -19.2,40.13 14.07,-4.78 24.22,-12.97 35.51,-19.24 21,12.29 9.12,17.6 35.21,25.49l-7.19 -37.21c18.28,-12.1 24.16,-7.32 32.09,-27.94l-37.11 -4.14c-20.33,-45.53 -2.02,-406.71 -9.07,-444.61 -1.63,-8.75 -3.09,-8.41 -4.76,-11.17 -7.79,17.43 -3.03,34.35 -2.83,57.03l-1.5 293.33c-1.54,91.52 1.34,30.71 -8.43,106.36 -16.04,-0.33 -20.51,-2.7 -33.04,3.64l17.94 15.57z"/>
  <path class="fil1" d="M2145.51 2528.73c36.05,-18.42 13.09,-0.16 35.13,-32.48 0.74,0.77 1.9,0.89 2.15,2.36l12.91 30.04c17.04,3.76 13.61,0.77 23.88,11.5 -24.17,12.64 -18.04,17.13 -15.44,44.52 -15.22,-8.8 -10.95,-11.78 -28.08,-21.35 -16.07,6.42 -16.61,10.15 -34.73,16.28l12.9 -32.99 -8.72 -17.88zm39.92 -343.83l-7.64 0c-13.62,98.19 16.41,247.08 -15.65,329.06 -13.11,2.64 -34.72,2.15 -42.83,11.84l26.64 16.93 -23.13 53.45c31.3,-6.74 29.78,-13.67 53.24,-23.04 17.52,11.25 17.3,22.3 36.67,27.83 8.17,-18.1 -6.39,-25.37 -1.12,-41.88 5.05,-15.83 17.98,-15.05 28.27,-30.44 -13.33,-9.77 -19.93,-6.23 -38.36,-7.12 -12.85,-32.05 -17.27,-39.14 -17.15,-75.36 0.27,-86.53 -3.45,-173.44 1.06,-261.27z"/>
  <path class="fil2" d="M2470.4 2931.99c8.21,16.15 19.67,28.93 30,51.36 32.34,-16.48 98.33,-58.76 107.44,-88.86 -38.45,-1.86 -44.38,-0.66 -74.62,14.14 -20.17,9.87 -48.17,13.59 -62.82,23.36z"/>
  <path class="fil0" d="M2088.05 2917.39c2.7,-38.34 -8.1,-62.01 -35.28,-77.29 -38.93,-21.88 -39.61,-19.49 -85,-8.84 9.74,6.31 16.65,19.86 22.35,30.09 8.3,14.91 10.27,14.55 19.15,26.33 29.14,-5.65 15.84,-16.81 53.04,-10.31l3.96 40.05 21.78 -0.03z"/>
  <path class="fil1" d="M2838.01 2461.88c-4.32,9.84 -1.45,19.22 -1.23,29.74 -13.98,-8.9 -11.21,-11.5 -21.27,-23.76 -15.46,5.42 -18.77,9.26 -29.12,17.52 4.34,-25.73 15.33,-26.53 -8.62,-36.79 11.14,-10.35 8.58,-8.68 25.41,-10.88l11.63 -36.95c13.81,42.62 -8.11,40.5 41.5,43.53 -1,1 -2.4,2.12 -3.2,2.8l-15.1 14.79zm-15.81 -276.98l-8.13 0c0,75.3 12.96,182.46 -17.88,242.92l-42.06 7.63c5.73,15.61 -6.08,2.76 20.08,18.16 5.2,3.06 5.52,3.52 8.86,6.29l-13.07 42.09c19.43,-2.31 28.09,-12.83 37.23,-24 0.97,0.76 2.38,0.78 2.81,2.41 0.42,1.6 2.17,1.85 2.73,2.39l4.92 4.79c17.43,17.18 14.34,19.31 30.74,20.94l-5.12 -43.77 28.57 -14.89c7.14,-6.33 1.67,-0.67 6.21,-8.29 -12.56,-7.76 -6.79,-4.69 -23.81,-6.38 -10.65,-1.06 -16.35,0.88 -21.73,-4.6 -18.69,-28.9 -10.35,-198.94 -10.35,-245.69z"/>
  <path class="fil0" d="M2006.19 2950.32c-17.36,-10.51 -32.78,-2.37 -41.77,-17.94 -10.59,-18.36 7.28,-14.49 9.68,-37.06 -14.11,-11.78 -21.96,-7.71 -39.09,-17.4 -20.57,62.11 73.81,139.44 71.18,72.4z"/>
  <path class="fil3 str0" d="M2422.32 2910.24c-54.2,-25.18 -97.51,-4.96 -137.03,21.12 -42.55,28.08 -71.04,122.94 -17.56,179.96 35.33,-8.76 202.57,-102.17 223.66,-124.33 -11.36,-33.61 -39.48,-63 -69.07,-76.75z"/>
  <path class="fil4 str0" d="M2441.18 3032.16c-35.46,27.49 -143.97,73.77 -165.95,90.17 17.6,14.21 33,33.86 66.09,38.35 66.41,9 125.64,-19.92 146.4,-72.67 12.5,-31.79 16.44,-53.22 8.5,-88.83 -11.72,5.15 -20.74,9.3 -31.42,15.4 -12.32,7.04 -12.64,9.07 -23.62,17.58z"/>
  <path class="fil5 str0" d="M2258.19 3118.8c-2.31,-7.45 -26.78,-56.82 -31.71,-65.97 -11.97,7.05 -20.38,14.52 -34.6,23.35 -24,14.9 -82.69,50.06 -91.06,75.83 34.13,0.04 57.68,2.03 87.63,-10.9 24.6,-10.61 41.86,-11.94 69.74,-22.31z"/>
  <path class="fil6 str0" d="M2470.4 2931.99c8.21,16.15 19.67,28.93 30,51.36 32.34,-16.48 98.33,-58.76 107.44,-88.86 -38.45,-1.86 -44.38,-0.66 -74.62,14.14 -20.17,9.87 -48.17,13.59 -62.82,23.36z"/>
  <path class="fil3 str0" d="M2204.14 2584.67c-2.6,-27.39 -8.73,-31.88 15.44,-44.52 -10.27,-10.73 -6.84,-7.74 -23.88,-11.5l-12.91 -30.04c-0.25,-1.47 -1.41,-1.59 -2.15,-2.36 -22.04,32.32 0.92,14.06 -35.13,32.48l8.72 17.88 -12.9 32.99c18.12,-6.13 18.66,-9.86 34.73,-16.28 17.13,9.57 12.86,12.55 28.08,21.35z"/>
  <path class="fil7 str0" d="M2052.77 2840.1c-38.93,-21.88 -39.61,-19.49 -85,-8.84 9.74,6.31 16.65,19.86 22.35,30.09 8.3,14.91 10.27,14.55 19.15,26.33 29.14,-5.65 15.84,-16.81 53.04,-10.31l3.96 40.05 21.78 -0.03c2.7,-38.34 -8.1,-62.01 -35.28,-77.29z"/>
  <path class="fil3 str0" d="M2053 2885.47c-20.44,-3.73 -17.53,4.6 -37.36,12.27 -30.17,-14.81 -33.69,-48.65 -59.58,-56.82 -41.72,40.35 2.72,30.21 27.46,48.44 1.5,41.17 -13.72,18.49 -11.36,40 24.26,16 57.23,-0.81 38.35,47.82 48.59,1.54 56.67,-8.68 73.43,-45.19 -32.17,-21.23 -23,5.08 -30.94,-46.52z"/>
  <path class="fil8 str0" d="M1964.42 2932.38c-10.59,-18.36 7.28,-14.49 9.68,-37.06 -14.11,-11.78 -21.96,-7.71 -39.09,-17.4 -20.57,62.11 73.81,139.44 71.18,72.4 -17.36,-10.51 -32.78,-2.37 -41.77,-17.94z"/>
  <path class="fil3 str0" d="M2602.69 2653.92c6.12,6.59 9.26,-7.14 4.74,15.52 -0.59,2.94 -6.88,12.63 -8.73,15.56l21.51 -8.18c7.07,7.65 7.83,10.39 16.72,16.42 -3.32,-23.77 2.89,-31.8 22.04,-37.98l-25.43 -2.23 -7.53 -20.43c-0.67,1.07 -1.33,2.61 -1.74,3.38 -10.24,18.9 -7.45,14.77 -21.58,17.94z"/>
  <path class="fil3 str0" d="M2777.77 2448.59c23.95,10.26 12.96,11.06 8.62,36.79 10.35,-8.26 13.66,-12.1 29.12,-17.52 10.06,12.26 7.29,14.86 21.27,23.76 -0.22,-10.52 -3.09,-19.9 1.23,-29.74l15.1 -14.79c0.8,-0.68 2.2,-1.8 3.2,-2.8 -49.61,-3.03 -27.69,-0.91 -41.5,-43.53l-11.63 36.95c-16.83,2.2 -14.27,0.53 -25.41,10.88z"/>
  <path class="fil3 str0" d="M3063.81 2635.61c-24.55,-20.49 -63.76,-23.71 -88.85,-10.71 20.14,19.23 63.26,20.69 95.79,18.26 -4.32,-5.5 -1.11,-2.68 -6.94,-7.55z"/>
  <path class="fil9 str0" d="M3016.51 2650.29c-15.3,-2.68 -61.78,-29.16 -64.8,-11.64 22.98,31.48 94.06,41.53 140.52,27.5 -7.53,-19.79 -3.86,-14.6 -31.31,-13.98 -15.7,0.35 -28.8,0.87 -44.41,-1.88z"/>
  <path class="fil10 str0" d="M3108.88 2710.69c-72.17,-6.87 -105.19,23.26 -147.01,-14.43 -10.24,-9.22 -32.39,-18.07 -40.61,-4.69l11.03 14.23c6.99,6.22 14.28,11.42 21.88,15.67l135.84 0c7.43,-4.26 0.19,-0.52 7.87,-4.94l11 -5.84z"/>
  <path class="fil11 str0" d="M3104.1 2725.33c-95.57,39.5 -140.6,12.22 -168.55,-3.86 -7.51,-4.33 -13.79,-7.84 -19.48,-9.03 8.88,-11.05 -1.56,-3.33 16.22,-6.64l-11.03 -14.23c-6.44,6.53 -8,18.19 -6.66,29.9 1.51,13.24 6.73,26.55 12.77,32.56 25.19,25.09 111.18,28.72 141.94,22.08 27.07,-5.84 32.41,-24.69 34.79,-50.78z"/>
  <path class="fil3 str0" d="M2954.17 2721.47c32.41,18.11 70.51,19.01 115.07,8.58 11.55,-2.7 8.67,-1.71 19.53,-7.88 0.46,-0.26 0.87,-0.49 1.24,-0.7l-135.84 0z"/>
  <path class="fil12 str0" d="M3070.74 2786.24c-24.69,-0.79 -50.12,0.71 -74.45,-0.3 -24.69,-1.01 -37.5,-8.95 -56.63,-12.73 6.82,5.15 32.21,46.67 101.65,29.03 18.29,-4.65 22.39,-7.02 29.43,-16z"/>
  <path class="fil1" d="M2103.11 3152.01c8.37,-25.77 67.06,-60.93 91.06,-75.83 14.22,-8.83 22.63,-16.3 34.6,-23.35 4.93,9.15 29.4,58.52 31.72,65.97 -27.89,10.37 -45.15,11.7 -69.75,22.31 -29.95,12.93 -53.49,10.94 -87.63,10.9zm174.42 -29.68c21.97,-16.4 130.49,-62.68 165.94,-90.17 10.99,-8.51 11.3,-10.54 23.62,-17.58 10.68,-6.1 19.71,-10.25 31.42,-15.4 7.94,35.61 4.01,57.04 -8.5,88.83 -20.76,52.75 -79.98,81.67 -146.4,72.67 -33.09,-4.49 -48.49,-24.14 -66.08,-38.35zm-7.51 -11.01c-53.48,-57.02 -24.99,-151.88 17.56,-179.96 39.53,-26.08 82.84,-46.3 137.04,-21.12 29.58,13.75 57.71,43.14 69.07,76.75 -21.09,22.16 -188.33,115.57 -223.67,124.33zm202.67 -179.33c14.66,-9.77 42.65,-13.49 62.82,-23.36 30.24,-14.8 36.17,-16 74.63,-14.14 -9.12,30.1 -75.11,72.38 -107.45,88.86 -10.33,-22.43 -21.78,-35.21 -30,-51.36zm-98.38 -747.09l-1.7 0c-15.81,54.31 8.77,600.45 -4.52,701.88 -20.63,14.16 -116.28,4.75 -135.96,136.89 -3.82,25.7 -36.9,42.66 -72.03,64.33 -22.12,13.64 -63.63,40.1 -65.21,69.54 26.89,7.05 70.01,4.19 96.5,-5.78l79 -27.25c52.28,63 138.42,54.82 174.25,27.99 20.9,-15.63 43.64,-32.4 55.31,-64.3 17.06,-46.65 8.52,-53.1 8.2,-97.94 20.87,-7.61 107.75,-62.85 108.66,-94.69 0.03,-0.82 -0.49,-1.84 -0.51,-3.67 -0.01,-1.87 -0.3,-2.52 -0.71,-3.72 -43.09,-14.22 -78.69,12.46 -127.68,27.73 -42.26,13.17 -23.13,5.99 -53.48,-10.92 -24.57,-13.71 -52.01,-6.23 -57.07,-23.42 -0.16,-89.22 9.62,-664.96 -3.05,-696.67z"/>
 </g>
</svg>
